<?xml version="1.0" encoding="utf-8"?>
<!-- Generator: Adobe Illustrator 19.1.0, SVG Export Plug-In . SVG Version: 6.00 Build 0)  -->
<svg version="1.1" id="Layer_1" xmlns="http://www.w3.org/2000/svg" xmlns:xlink="http://www.w3.org/1999/xlink" x="0px" y="0px"
	 viewBox="0 0 500 135" style="enable-background:new 0 0 500 135;" xml:space="preserve">
<style type="text/css">
	.st0{fill:#FFFFFF;}
</style>
<g>
	<path class="st0" d="M497,61.6l-0.1,0.1c0,0,0-0.1,0-0.1c-8.9-3-19.3-3-30,0c-0.4,0-0.8,0-1.1-0.1c-0.5,0-0.9-0.1-1.1-0.1
		c-0.3,0-0.4-0.1-0.4-0.1s0.1-0.1,0.3-0.3c0.2-0.2,0.5-0.4,0.9-0.7c0.4-0.3,0.9-0.7,1.4-1c0.6-0.3,1.2-0.7,2-1.1
		c1.5-0.7,3.3-1.4,5.2-2c0.5-0.2,1-0.2,1.5-0.4c0.5-0.1,1-0.2,1.6-0.3c1.1-0.2,2.2-0.3,3.3-0.3c1.9-0.1,3.8,0,5.6,0.3
		c2.5-9.3,2.6-18.2,0.1-25.5c-5.9-2-12.5-2.5-19.5-1.5c-4.9-13.5-13.2-23.4-23.3-28.4c-9.2,4.5-16.9,13.1-21.9,24.7
		c0.3,0.1,0.6,0.1,0.9,0.2c0.6,0.1,1.2,0.3,1.7,0.5c0.6,0.2,1.1,0.3,1.7,0.6c1.1,0.4,2.1,0.8,3,1.3c0.9,0.4,1.8,1,2.6,1.4
		c0.8,0.5,1.5,1,2.1,1.5c0.6,0.4,1.1,0.9,1.5,1.3c0.4,0.4,0.7,0.7,0.9,0.9c0.2,0.2,0.3,0.3,0.3,0.3s-0.2,0-0.4,0
		c-0.3,0-0.7,0-1.2-0.1c-0.4-0.1-1-0.1-1.6-0.2c-11.6-4.9-23.2-5.2-32.7-1.9c-2.5,7.2-2.4,16,0.1,25c0.8-0.1,1.7-0.2,2.6-0.3
		c1.1-0.1,2.2-0.1,3.3,0c1.1,0.1,2.2,0.2,3.3,0.3c0.5,0.1,1.1,0.2,1.6,0.3c0.5,0.1,1,0.2,1.5,0.4c2,0.5,3.8,1.2,5.3,2
		c0.7,0.4,1.4,0.8,2,1.1c0.6,0.3,1.1,0.7,1.4,1c0.4,0.3,0.7,0.6,0.9,0.7c0.2,0.2,0.3,0.3,0.3,0.3s-0.1,0-0.4,0.1
		c-0.3,0-0.7,0.1-1.1,0.1c-0.3,0-0.7,0-1.2,0.1c-10.9-3.1-21.3-3.1-30.3-0.1c-0.1,0.4-0.2,0.7-0.3,1.1c-6.1,23,3.9,54.1,29.3,66.6
		c-7.6-10.9-5.8-20.9,8.9-31.7c0.8-0.6,2,0.4,1.5,1.4c-6.1,11.9,1.6,26.1,13.6,36.1c0,0,0,0,0,0c19.3-28-32.6-71.2,13.9-97.6
		c0.9-0.5,1.9,0.6,1.3,1.4c-29.1,38.7,44.1,50.5,6.6,92.2C492.8,119.8,504.1,85.8,497,61.6z"/>
	<g>
		<path class="st0" d="M26.6,53.3v2.1H8.1v13.7h15.8v2.1H8.1v14.5h18.5v2.1H5.8V53.3H26.6z"/>
		<path class="st0" d="M64.6,87.8h-2.4V56.7L50.6,82.3h-2.5L36.4,56.7v31.2h-2.3V53.3h3.1l12.1,26.4l12.1-26.4h3.1V87.8z"/>
		<path class="st0" d="M89.8,53.3c4.6,0,7,2.4,7,7v4c0,3.3-1.2,5-3.5,5.9c2.4,0.7,3.9,2.5,3.9,5.8v4.8c0,4.6-2.4,7-7,7H74.3V53.3
			H89.8z M89.7,69.1c3.1,0,4.8-1.7,4.8-4.8v-4.1c0-3.1-1.7-4.8-4.8-4.8H76.6v13.7H89.7z M90.1,85.7c3.1,0,4.8-1.7,4.8-4.8V76
			c0-3.1-1.7-4.8-4.8-4.8H76.6v14.5H90.1z"/>
		<path class="st0" d="M126.6,53.3v2.1h-18.5v13.7h15.8v2.1h-15.8v14.5h18.5v2.1h-20.8V53.3H126.6z"/>
		<path class="st0" d="M155.3,87.8L147.2,73h-10.7v14.9h-2.3V53.3h15.6c4.6,0,7,2.4,7,7v5.7c0,4.6-2.4,7-7,7h-0.1l8.2,14.9H155.3z
			 M149.8,70.8c3.1,0,4.8-1.7,4.8-4.8v-5.9c0-3.1-1.7-4.8-4.8-4.8h-13.2v15.5H149.8z"/>
		<path class="st0" d="M183.8,71h-7.9v-1.9h7.9V61h1.9v8.1h7.9V71h-7.9v8.1h-1.9V71z"/>
		<path class="st0" d="M231.7,60.2c0-3.1-1.7-4.8-4.8-4.8h-7.5c-3.1,0-4.8,1.7-4.8,4.8v3.1c0,3.4,1.3,3.9,4,4.6l8.9,2.3
			c4.8,1.2,6.9,2.1,6.9,6.9v3.8c0,4.6-2.4,7-7,7h-8.4c-4.6,0-7-2.4-7-7V78h2.3v2.9c0,3.1,1.7,4.8,4.8,4.8h8.2c3.1,0,4.8-1.7,4.8-4.8
			v-3.8c0-3.4-1.2-3.9-4-4.6l-8.9-2.2c-4.8-1.2-6.9-2.1-6.9-6.9v-3.1c0-4.6,2.4-7,7-7h7.7c4.6,0,7,2.4,7,7v2.3h-2.3V60.2z"/>
		<path class="st0" d="M264,53.3v2.1h-18.5v13.7h15.8v2.1h-15.8v14.5H264v2.1h-20.8V53.3H264z"/>
		<path class="st0" d="M292.4,53.3v2.1h-18.5v13.7h15.8v2.1h-15.8v14.5h18.5v2.1h-20.8V53.3H292.4z"/>
		<path class="st0" d="M316,53.3c4.6,0,7,2.4,7,7v20.5c0,4.6-2.4,7-7,7h-16V53.3H316z M315.9,85.7c3.1,0,4.8-1.7,4.8-4.8V60.2
			c0-3.1-1.7-4.8-4.8-4.8h-13.6v30.3H315.9z"/>
	</g>
</g>
</svg>
