<svg id="Layer_1" data-name="Layer 1" xmlns="http://www.w3.org/2000/svg" viewBox="0 0 145.86 60.1"><defs><style>.cls-1{fill:#ffffff;}</style></defs><title>logo-stacked</title><path class="cls-1" d="M112,40.93a10.21,10.21,0,0,0-6.06-.19,2.67,2.67,0,0,1,.18-0.27,4,4,0,0,1,.77-0.81,5,5,0,0,1,2.91-1.05,5.15,5.15,0,0,1,.8,0,10.72,10.72,0,0,0-.1-5.75,9.86,9.86,0,0,0-4.35-.4A11.82,11.82,0,0,0,100,25a11.27,11.27,0,0,0-5.59,6l0.1,0a6,6,0,0,1,.86.33,5.15,5.15,0,0,1,1.36.92,4.83,4.83,0,0,1,.47.5,3.08,3.08,0,0,1,.3.45c0.08,0.12.13,0.24,0.17,0.32l0.05,0.12A11.37,11.37,0,0,0,89.45,33a10.57,10.57,0,0,0-.11,5.66,5.19,5.19,0,0,1,.87,0,5.55,5.55,0,0,1,.85.1,5.3,5.3,0,0,1,.8.23,4.77,4.77,0,0,1,1.3.74,4.54,4.54,0,0,1,.47.42,3.09,3.09,0,0,1,.32.39,2.78,2.78,0,0,1,.17.26,10.25,10.25,0,0,0-6.15.16c-1.64,6.18,1.16,13.14,8.19,15a4.64,4.64,0,0,1-2.06-2.46c-0.77-2.57.08-4.8,2.28-7.11-0.87,5.44,4,4.24,3.21,10h0.14c4.17-6.22-1.3-10-1.21-15,0.05-3.09,1.8-6.5,5.16-7.39-0.63.86-3.3,6,.74,10.05,2.92,3,5.19,8.11.29,11.64C111.12,53.52,113.62,46.86,112,40.93Z" transform="translate(-27.07 -24.95)"/><path class="cls-1" d="M36.82,69.21v1.45H28.65v5.57h6.89v1.45H28.65V83.6h8.16V85H27.07V69.21h9.75Z" transform="translate(-27.07 -24.95)"/><path class="cls-1" d="M54.37,85H52.83V71.56l-4.88,11H46.52l-4.88-11V85h-1.5V69.21h2l5.13,11.49,5.15-11.49h2V85Z" transform="translate(-27.07 -24.95)"/><path class="cls-1" d="M66,69.21a2.76,2.76,0,0,1,3.08,3.08v2.35A2.33,2.33,0,0,1,67.66,77a2.22,2.22,0,0,1,1.63,2.33V82A2.76,2.76,0,0,1,66.21,85H58.6V69.21H66Zm-0.09,7a1.42,1.42,0,0,0,1.58-1.58v-2.4a1.42,1.42,0,0,0-1.58-1.58H60.18v5.57h5.77Zm0.18,7.37A1.42,1.42,0,0,0,67.7,82V79.24a1.42,1.42,0,0,0-1.58-1.58H60.18V83.6h5.94Z" transform="translate(-27.07 -24.95)"/><path class="cls-1" d="M82.75,69.21v1.45H74.59v5.57h6.89v1.45H74.59V83.6h8.16V85H73V69.21h9.75Z" transform="translate(-27.07 -24.95)"/><path class="cls-1" d="M95.38,85l-3.43-6.58H87.66V85H86.07V69.21h7.5a2.77,2.77,0,0,1,3.08,3.08v3.1a2.75,2.75,0,0,1-2.95,3.08L97.14,85H95.38Zm-1.89-8a1.42,1.42,0,0,0,1.58-1.58V72.24a1.42,1.42,0,0,0-1.58-1.58H87.66V77h5.83Z" transform="translate(-27.07 -24.95)"/><path class="cls-1" d="M108.6,77.57h-3.48V76.25h3.48V72.77h1.32v3.48h3.48v1.32h-3.48V81H108.6V77.57Z" transform="translate(-27.07 -24.95)"/><path class="cls-1" d="M130.47,72.16a1.42,1.42,0,0,0-1.58-1.58H125a1.42,1.42,0,0,0-1.58,1.58v1.78c0,1.17.51,1.52,1.58,1.78l4.09,1c1.72,0.42,3.17.84,3.17,3.15V82A2.76,2.76,0,0,1,129.19,85h-4.31A2.77,2.77,0,0,1,121.8,82V80.41h1.58V82.1A1.42,1.42,0,0,0,125,83.68h4.14a1.42,1.42,0,0,0,1.58-1.58V80c0-1.17-.51-1.52-1.58-1.78l-4.09-1c-1.72-.42-3.17-0.84-3.17-3.15V72.29a2.76,2.76,0,0,1,3.08-3.08h4a2.76,2.76,0,0,1,3.08,3.08V73.7h-1.58V72.16Z" transform="translate(-27.07 -24.95)"/><path class="cls-1" d="M145.78,69.21v1.45h-8.16v5.57h6.89v1.45h-6.89V83.6h8.16V85H136V69.21h9.75Z" transform="translate(-27.07 -24.95)"/><path class="cls-1" d="M158.85,69.21v1.45h-8.16v5.57h6.89v1.45h-6.89V83.6h8.16V85H149.1V69.21h9.75Z" transform="translate(-27.07 -24.95)"/><path class="cls-1" d="M169.85,69.21a2.77,2.77,0,0,1,3.08,3.08V82A2.77,2.77,0,0,1,169.85,85h-7.68V69.21h7.68ZM169.76,83.6A1.42,1.42,0,0,0,171.35,82V72.24a1.42,1.42,0,0,0-1.58-1.58h-6V83.6h6Z" transform="translate(-27.07 -24.95)"/></svg>
